<?xml version="1.0" encoding="UTF-8" standalone="no"?>
<!-- Created with Inkscape (http://www.inkscape.org/) -->

<svg
   version="1.1"
   id="svg1"
   width="2560"
   height="1440"
   viewBox="0 0 2560 1440"
   sodipodi:docname="bg.svg"
   inkscape:version="1.3.2 (091e20e, 2023-11-25, custom)"
   xmlns:inkscape="http://www.inkscape.org/namespaces/inkscape"
   xmlns:sodipodi="http://sodipodi.sourceforge.net/DTD/sodipodi-0.dtd"
   xmlns="http://www.w3.org/2000/svg"
   xmlns:svg="http://www.w3.org/2000/svg">
  <defs
     id="defs1" />
  <sodipodi:namedview
     id="namedview1"
     pagecolor="#505050"
     bordercolor="#eeeeee"
     borderopacity="1"
     inkscape:showpageshadow="0"
     inkscape:pageopacity="0"
     inkscape:pagecheckerboard="0"
     inkscape:deskcolor="#505050"
     showgrid="false"
     inkscape:zoom="0.66328125"
     inkscape:cx="1124.7114"
     inkscape:cy="911.37809"
     inkscape:window-width="1366"
     inkscape:window-height="745"
     inkscape:window-x="-8"
     inkscape:window-y="-8"
     inkscape:window-maximized="1"
     inkscape:current-layer="g1">
    <inkscape:grid
       id="grid4"
       units="px"
       originx="0"
       originy="0"
       spacingx="1"
       spacingy="1"
       empcolor="#0099e5"
       empopacity="0.30196078"
       color="#0099e5"
       opacity="0.14901961"
       empspacing="5"
       dotted="false"
       gridanglex="30"
       gridanglez="30"
       visible="false" />
  </sodipodi:namedview>
  <g
     inkscape:groupmode="layer"
     inkscape:label="Image"
     id="g1">
    <g
       id="g3">
      <path
         style="display:inline;fill:#cba6f7;fill-opacity:1"
         d="m 1319.612,1166.2455 c -0.3842,-1.0014 -0.2587,-2.5324 0.279,-3.4024 0.7022,-1.1362 6.77,-1.4777 21.5433,-1.2124 19.5537,0.3511 20.5657,0.5005 20.5657,3.036 0,2.5373 -1.011,2.6844 -20.8447,3.033 -16.64,0.2925 -20.9855,-8e-4 -21.5433,-1.4542 z m 77.1913,-7.3578 c -0.3781,-0.6118 0.4642,-3.4618 1.8719,-6.3333 1.4076,-2.8716 3.4815,-8.7971 4.6087,-13.1679 1.1272,-4.3707 2.0494,-11.2946 2.0494,-15.3865 0,-4.0919 -0.9222,-11.0158 -2.0494,-15.3865 -1.1272,-4.3708 -3.2011,-10.2963 -4.6087,-13.1679 -1.4077,-2.8715 -2.25,-5.7215 -1.8719,-6.3333 0.3781,-0.6118 1.8816,-1.1123 3.3411,-1.1123 1.9841,0 3.8098,2.4393 7.2353,9.6667 2.5629,5.4076 5.0803,13.3382 5.7136,18 0.6226,4.5833 0.6226,12.0833 0,16.6666 -0.6333,4.6618 -3.1507,12.5924 -5.7136,18 -3.4255,7.2274 -5.2512,9.6667 -7.2353,9.6667 -1.4595,0 -2.963,-0.5005 -3.3411,-1.1123 z m -27.4442,-2.5544 c 0.014,-1.2833 0.7998,-5.3333 1.746,-9 1.4776,-5.7256 2.2278,-6.7263 5.3152,-7.0893 2.4138,-0.2837 3.8777,0.3146 4.4559,1.8213 0.4913,1.2804 -0.6507,5.3261 -2.6598,9.4226 -2.5187,5.1355 -4.2839,7.1788 -6.2019,7.1788 -1.6744,0 -2.6715,-0.8762 -2.6554,-2.3334 z m -211.4607,-5.527 c -3.7536,-1.7048 -6.0222,-3.8612 -7.3333,-6.9707 -1.4117,-3.3479 -1.8984,-10.8267 -1.8984,-29.1689 V 1090 h 4 4 l 0.6666,24.7983 c 0.4853,18.0496 1.1567,25.3879 2.4673,26.9647 0.9904,1.1915 3.8983,2.5599 6.462,3.0409 2.5637,0.481 6.9133,0.1997 9.6658,-0.6249 2.7525,-0.8247 7.7586,-3.6023 11.1248,-6.1725 3.3661,-2.5703 7.0157,-4.6732 8.1103,-4.6732 1.0946,0 2.4121,1.3294 2.9278,2.9542 0.7566,2.3839 -0.1599,3.9281 -4.7471,7.9989 -3.23,2.8664 -8.5944,5.9088 -12.4231,7.0458 -3.7061,1.1006 -9.1795,1.988 -12.1631,1.9719 -2.9836,-0.016 -7.8704,-1.1401 -10.8596,-2.4978 z m 81.4078,0.033 c -3.1415,-1.4271 -6.1445,-4.0367 -7.2544,-6.3041 -1.3257,-2.708 -2.0582,-10.5814 -2.4414,-26.2396 -0.3011,-12.3039 -0.1657,-23.8917 0.3009,-25.7507 0.6861,-2.7335 1.5409,-3.3003 4.4685,-2.9627 L 1238,1090 l 0.6718,24 c 0.4389,15.6792 1.2535,25.0202 2.3496,26.9426 1.0143,1.7791 3.5673,3.2971 6.4568,3.8392 2.6284,0.4931 7.0311,0.2218 9.7836,-0.6028 2.7524,-0.8247 7.8118,-3.643 11.243,-6.2629 3.4313,-2.6199 7.2713,-4.5667 8.5336,-4.3262 1.2622,0.2405 2.4769,1.7071 2.6994,3.2589 0.2804,1.9558 -1.3384,4.3135 -5.2751,7.6831 -3.1237,2.6738 -8.6647,5.748 -12.3131,6.8315 -3.6485,1.0835 -9.0747,1.9568 -12.0583,1.9407 -2.9835,-0.016 -7.8369,-1.1251 -10.7851,-2.4644 z m 60.1975,-3.5433 c -0.4604,-1.1996 -0.837,-9.3883 -0.837,-18.1969 0,-14.7032 -0.211,-16.071 -2.5745,-16.689 -1.4159,-0.3703 -2.8604,-1.4186 -3.2099,-2.3295 -0.3496,-0.9109 -0.2411,-2.2455 0.2411,-2.9658 0.4821,-0.7204 1.8425,-1.6648 3.0231,-2.0989 1.1805,-0.434 2.82,-3.4644 3.6434,-6.7342 0.9678,-3.8434 2.7034,-6.7355 4.91,-8.1812 2.3616,-1.5475 5.5519,-2.1128 10.3565,-1.8353 5.921,0.342 6.9436,0.7938 6.9436,3.0677 0,2.0754 -1.0347,2.7637 -4.6667,3.1043 -2.5666,0.2406 -5.743,1.4075 -7.0587,2.5931 -1.3156,1.1855 -2.2156,3.3886 -2,4.8957 0.301,2.1039 1.6306,2.8951 5.7254,3.4069 4.2222,0.5278 5.3333,1.2223 5.3333,3.3334 0,2.1111 -1.1111,2.8055 -5.3333,3.3333 l -5.3333,0.6667 -0.6667,18 -0.6667,18 -3.4963,0.4054 c -2.2783,0.2642 -3.7879,-0.3544 -4.3333,-1.7757 z m 135.3318,-1.1166 -2.9626,-3.1536 6.5726,-4.2176 c 3.615,-2.3197 9.5861,-7.404 13.2693,-11.2984 3.6832,-3.8944 8.4717,-10.6274 10.6411,-14.9622 2.1694,-4.3347 4.6992,-10.2813 5.6219,-13.2147 0.9227,-2.9333 2.1363,-5.8344 2.6967,-6.4468 0.5605,-0.6124 2.8701,-0.1562 5.1324,1.0137 l 4.1134,2.127 -4.6433,10.189 c -2.5538,5.604 -5.9603,12.3479 -7.5699,14.9864 -1.6097,2.6386 -6.2523,8.334 -10.3169,12.6566 -4.0646,4.3226 -9.7302,9.5726 -12.5903,11.6667 -2.86,2.0941 -5.6054,3.8074 -6.1009,3.8074 -0.4954,0 -2.234,-1.4191 -3.8635,-3.1535 z M 1176,1103.238 c -2.5667,-1.8092 -4.6667,-4.3197 -4.6667,-5.5789 0,-1.2591 1.0221,-2.4861 2.2713,-2.7267 1.2492,-0.2405 4.1237,0.9323 6.3879,2.6062 2.6061,1.9268 3.9743,3.9993 3.7288,5.6481 -0.2134,1.4324 -0.988,2.7701 -1.7213,2.9727 -0.7333,0.2025 -3.4333,-1.1121 -6,-2.9214 z m 5.0154,-7.0248 c -2.0082,-1.2154 -3.9601,-3.0147 -4.3377,-3.9985 -0.3775,-0.9838 -0.349,-2.3345 0.063,-3.0017 0.4124,-0.6671 1.58,-1.213 2.5948,-1.213 1.0148,0 3.9794,1.2593 6.588,2.7984 2.7906,1.6465 4.7429,3.8418 4.7429,5.3333 0,1.7761 -0.8981,2.4985 -3,2.4131 -1.65,-0.067 -4.6431,-1.1163 -6.6513,-2.3316 z m -2.0299,-68.2341 c -6.2881,-5.9483 -6.8417,-6.9121 -5.346,-9.3073 0.9178,-1.4695 2.6343,-2.6718 3.8145,-2.6718 1.1802,0 4.4859,1.7 7.3459,3.7777 2.8601,2.0777 6.0383,4.7955 7.0628,6.0395 1.4555,1.7673 1.5346,2.9819 0.3619,5.5556 -0.8254,1.8116 -2.5636,3.2821 -3.8627,3.2678 -1.299,-0.014 -5.5184,-3.012 -9.3764,-6.6615 z m -31.4299,-0.868 c -0.4889,-0.4889 -0.8889,-14.2189 -0.8889,-30.51115 0,-27.7461 0.1569,-29.6633 2.4773,-30.27009 1.3625,-0.35631 3.4625,-0.0965 4.6666,0.57741 1.9212,1.07516 2.1894,4.63352 2.1894,29.04993 0,15.3036 -0.3642,28.7738 -0.8093,29.9338 -0.4451,1.1599 -2.1451,2.109 -3.7778,2.109 -1.6326,0 -3.3685,-0.4 -3.8573,-0.8889 z m 212.8406,-14.7778 c -3.6688,-4.2166 -11.5551,-11.2666 -17.5251,-15.66663 -5.9701,-4.4 -10.8584,-8.72889 -10.8629,-9.61976 0,-0.89086 1.1524,-2.24086 2.5708,-3 1.4185,-0.75913 3.5441,-1.38024 4.7236,-1.38024 1.1795,0 5.569,2.5114 9.7543,5.5809 4.1854,3.06949 11.6598,9.46793 16.6098,14.21873 4.95,4.7508 9,9.6464 9,10.8791 0,1.2327 -1.0973,3.2343 -2.4384,4.4479 -1.341,1.2137 -3.0511,2.2067 -3.8,2.2067 -0.7489,0 -4.3634,-3.45 -8.0321,-7.6667 z m -106.4036,-4.3452 c -0.4573,-0.7399 -0.4934,-2.4101 -0.08,-3.7115 0.4131,-1.3015 2.4944,-3.3961 4.6251,-4.65478 2.2614,-1.33579 6.6328,-2.28849 10.5008,-2.28849 3.6446,0 9.1775,0.9 12.2952,2 3.1178,1.09997 7.5432,1.97877 9.8343,1.95277 2.2912,-0.026 5.6657,-0.9047 7.4991,-1.95277 1.8333,-1.04802 4.0833,-1.92676 5,-1.95275 0.9166,-0.026 1.6666,1.46157 1.6666,3.30572 0,2.3519 -1.2937,4.1417 -4.3333,5.995 -2.6404,1.6098 -6.7065,2.644 -10.4078,2.647 -3.3409,0 -9.7563,-1.2384 -14.2564,-2.7581 l -8.1819,-2.763 -6.2465,2.763 c -3.4355,1.5197 -6.4347,2.7631 -6.6649,2.7631 -0.2301,0 -0.7926,-0.6053 -1.2499,-1.3452 z m 4.5715,-90.5522 c -2.1436,-2.14359 -3.8974,-5.09756 -3.8974,-6.56437 0,-1.46681 1.5533,-4.51296 3.4518,-6.76923 2.579,-3.06496 4.572,-4.1023 7.8815,-4.1023 3.3095,0 5.3025,1.03734 7.8815,4.1023 1.8985,2.25627 3.4518,5.58491 3.4518,7.397 0,1.85015 -1.5468,4.72827 -3.528,6.56437 -2.0765,1.92445 -5.1358,3.26966 -7.4359,3.26966 -2.5414,0 -5.2706,-1.36277 -7.8053,-3.89743 z m -147.1552,-2.12195 c -1.9658,-2.57733 -5.0781,-7.97099 -6.9162,-11.98593 -2.5783,-5.63185 -3.3507,-9.53009 -3.3802,-17.06009 -0.021,-5.36811 0.6978,-12.21708 1.5974,-15.21992 0.8997,-3.00285 3.8302,-8.36314 6.5123,-11.91177 2.682,-3.54863 5.9061,-6.65034 7.1645,-6.89269 1.2584,-0.24235 2.645,0.48964 3.0813,1.62665 0.4836,1.26013 -1.0515,4.22253 -3.9316,7.58732 -2.5988,3.03603 -5.6576,8.25698 -6.7974,11.60212 -1.1398,3.34513 -2.0723,8.89974 -2.0723,12.34358 0,3.44383 0.902,8.81809 2.0044,11.9428 1.1025,3.12472 4.144,8.6593 6.7589,12.29908 2.6149,3.63978 4.4318,7.45863 4.0374,8.48634 -0.3944,1.02771 -1.5647,1.86856 -2.6006,1.86856 -1.036,0 -3.492,-2.10872 -5.4579,-4.68605 z M 1179,914.90679 c -3.1167,-2.73873 -5.6667,-5.93968 -5.6667,-7.11322 0,-1.17355 0.8831,-2.86659 1.9624,-3.76232 1.5765,-1.30842 2.8262,-1.09473 6.3561,1.08686 2.4165,1.49351 5.8321,4.24663 7.5902,6.11804 3.1045,3.30458 3.1267,3.47978 0.7706,6.08321 -1.3342,1.47435 -3.0829,2.65506 -3.8859,2.62379 -0.803,-0.0313 -4.01,-2.29763 -7.1267,-5.03636 z m 144.2417,-1.99804 c -0.371,-0.96686 3.5478,-10.96937 8.7085,-22.2278 5.1607,-11.25843 9.3831,-21.26737 9.3831,-22.24208 0,-1.3602 -3.2167,-1.7722 -13.8367,-1.7722 -10.6727,0 -14.2163,-0.45734 -15.4966,-2 -1.3256,-1.59721 -1.3196,-2.40993 0.029,-4.03544 1.3969,-1.68318 4.944,-1.97161 20.4966,-1.66666 l 18.8073,0.36876 0.4099,4.22671 c 0.2913,3.00456 -2.5058,10.69369 -9.6737,26.59233 -5.546,12.30109 -10.8304,22.83989 -11.7432,23.41954 -0.9128,0.57966 -2.7285,1.06311 -4.0348,1.07434 -1.3064,0.0112 -2.6788,-0.77065 -3.0498,-1.7375 z m -190.3684,-51.34707 c -1.2136,-1.34108 -2.2066,-3.64808 -2.2066,-5.12668 0,-1.4786 1.1505,-3.72957 2.5567,-5.00216 1.4062,-1.27259 3.9361,-2.11558 5.6221,-1.87332 1.686,0.24227 3.9497,2.02134 5.0306,3.9535 1.761,3.14789 1.7278,3.87546 -0.3195,7 -1.3781,2.10327 -3.5133,3.48698 -5.3807,3.48698 -1.7028,0 -4.0889,-1.09724 -5.3026,-2.43832 z m 128.7934,-62.7281 c -3.85,-3.50829 -7,-7.30759 -7,-8.44289 0,-1.13529 0.9177,-2.82585 2.0395,-3.75679 1.5183,-1.26015 2.8391,-1.32828 5.1692,-0.26662 1.7213,0.7843 5.3036,3.33466 7.9605,5.66748 2.6569,2.33282 4.8308,5.28634 4.8308,6.56338 0,1.27704 -1.0973,3.31489 -2.4384,4.52854 -1.341,1.21366 -2.691,2.17942 -3,2.14613 -0.3089,-0.0333 -3.7116,-2.93094 -7.5616,-6.43923 z m -116.1902,-0.66106 c -1.161,-1.39895 -0.9648,-2.45405 0.8367,-4.49942 1.2944,-1.46956 15.2535,-13.44424 31.0201,-26.6104 15.7667,-13.16615 30.1725,-24.91595 32.0129,-26.11064 2.0991,-1.36259 4.0351,-1.74648 5.1943,-1.03002 1.0165,0.62819 1.4947,2.06316 1.0627,3.18882 -0.432,1.12567 -15.5712,14.38622 -33.6428,29.4679 C 1163.8888,787.66044 1148.6283,800 1148.0481,800 c -0.5802,0 -1.7374,-0.82237 -2.5716,-1.82748 z m 83.1557,-1.11477 c -0.3772,-0.98313 -0.5238,-14.97331 -0.3257,-31.08929 l 0.3602,-29.30179 h 4 4 V 767.33333 798 l -3.6743,0.42263 c -2.1724,0.24988 -3.9546,-0.30802 -4.3602,-1.36488 z"
         id="path4" />
      <path
         style="display:inline;fill:#181825;fill-opacity:1"
         d="M 0,720 V 0 h 1280 1280 v 720 720 H 1280 0 Z m 1362,444.6667 c 0,-2.5355 -1.012,-2.6849 -20.5657,-3.036 -14.7733,-0.2653 -20.8411,0.076 -21.5433,1.2124 -0.5377,0.87 -0.6632,2.401 -0.279,3.4024 0.5578,1.4534 4.9033,1.7467 21.5433,1.4542 19.8337,-0.3486 20.8447,-0.4957 20.8447,-3.033 z m 45.3797,-14.3334 c 2.5629,-5.4076 5.0803,-13.3382 5.7136,-18 0.6226,-4.5833 0.6226,-12.0833 0,-16.6666 -0.6333,-4.6618 -3.1507,-12.5924 -5.7136,-18 -3.4255,-7.2274 -5.2512,-9.6667 -7.2353,-9.6667 -1.4595,0 -2.963,0.5005 -3.3411,1.1123 -0.3781,0.6118 0.4642,3.4618 1.8719,6.3333 1.4076,2.8716 3.4815,8.7971 4.6087,13.1679 1.1272,4.3707 2.0494,11.2946 2.0494,15.3865 0,4.0919 -0.9222,11.0158 -2.0494,15.3865 -1.1272,4.3708 -3.2011,10.2963 -4.6087,13.1679 -1.4077,2.8715 -2.25,5.7215 -1.8719,6.3333 0.3781,0.6118 1.8816,1.1123 3.3411,1.1123 1.9841,0 3.8098,-2.4393 7.2353,-9.6667 z m -29.1633,1.1546 c 2.0091,-4.0965 3.1511,-8.1422 2.6598,-9.4226 -0.5782,-1.5067 -2.0421,-2.105 -4.4559,-1.8213 -3.0874,0.363 -3.8376,1.3637 -5.3152,7.0893 -0.9462,3.6667 -1.7319,7.7167 -1.746,9 -0.016,1.4572 0.981,2.3334 2.6554,2.3334 1.918,0 3.6832,-2.0433 6.2019,-7.1788 z m -197.2953,-0.1557 c 3.8287,-1.137 9.1931,-4.1794 12.4231,-7.0458 4.5872,-4.0708 5.5037,-5.615 4.7471,-7.9989 -0.5157,-1.6248 -1.8332,-2.9542 -2.9278,-2.9542 -1.0946,0 -4.7442,2.1029 -8.1103,4.6732 -3.3662,2.5702 -8.3723,5.3478 -11.1248,6.1725 -2.7525,0.8246 -7.1021,1.1059 -9.6658,0.6249 -2.5637,-0.481 -5.4716,-1.8494 -6.462,-3.0409 -1.3106,-1.5768 -1.982,-8.9151 -2.4673,-26.9647 L 1156.6667,1090 h -4 -4 v 24.6667 c 0,18.3422 0.4867,25.821 1.8984,29.1689 1.3111,3.1095 3.5797,5.2659 7.3333,6.9707 2.9892,1.3577 7.876,2.4816 10.8596,2.4978 2.9836,0.016 8.457,-0.8713 12.1631,-1.9719 z m 81.2285,0.031 c 3.6484,-1.0835 9.1894,-4.1577 12.3131,-6.8315 3.9367,-3.3696 5.5555,-5.7273 5.2751,-7.6831 -0.2225,-1.5518 -1.4372,-3.0184 -2.6994,-3.2589 -1.2623,-0.2405 -5.1023,1.7063 -8.5336,4.3262 -3.4312,2.6199 -8.4906,5.4382 -11.243,6.2629 -2.7525,0.8246 -7.1552,1.0959 -9.7836,0.6028 -2.8895,-0.5421 -5.4425,-2.0601 -6.4568,-3.8392 -1.0961,-1.9224 -1.9107,-11.2634 -2.3496,-26.9426 l -0.6718,-24 -3.6202,-0.4174 c -2.9276,-0.3376 -3.7824,0.2292 -4.4685,2.9627 -0.4666,1.859 -0.602,13.4468 -0.3009,25.7507 0.3832,15.6582 1.1157,23.5316 2.4414,26.2396 1.1099,2.2674 4.1129,4.877 7.2544,6.3041 2.9482,1.3393 7.8016,2.4482 10.7851,2.4644 2.9836,0.016 8.4098,-0.8572 12.0583,-1.9407 z m 45.8504,-20.6967 0.6667,-18 L 1314,1112 c 4.2222,-0.5278 5.3333,-1.2222 5.3333,-3.3333 0,-2.1111 -1.1111,-2.8056 -5.3333,-3.3334 -4.0948,-0.5118 -5.4244,-1.303 -5.7254,-3.4069 -0.2156,-1.5071 0.6844,-3.7102 2,-4.8957 1.3157,-1.1856 4.4921,-2.3525 7.0587,-2.5931 3.632,-0.3406 4.6667,-1.0289 4.6667,-3.1043 0,-2.2739 -1.0226,-2.7257 -6.9436,-3.0677 -4.8046,-0.2775 -7.9949,0.2878 -10.3565,1.8353 -2.2066,1.4457 -3.9422,4.3378 -4.91,8.1812 -0.8234,3.2698 -2.4629,6.3002 -3.6434,6.7342 -1.1806,0.4341 -2.541,1.3785 -3.0231,2.0989 -0.4822,0.7203 -0.5907,2.0549 -0.2411,2.9658 0.3495,0.9109 1.794,1.9592 3.2099,2.3295 2.3635,0.618 2.5745,1.9858 2.5745,16.689 0,8.8086 0.3766,16.9973 0.837,18.1969 0.5454,1.4213 2.055,2.0399 4.3333,1.7757 l 3.4963,-0.4054 z m 136.7999,14.8592 c 2.8601,-2.0941 8.5257,-7.3441 12.5903,-11.6667 4.0646,-4.3226 8.7072,-10.018 10.3169,-12.6566 1.6096,-2.6385 5.0161,-9.3824 7.5699,-14.9864 l 4.6433,-10.189 -4.1134,-2.127 c -2.2623,-1.1699 -4.5719,-1.6261 -5.1324,-1.0137 -0.5604,0.6124 -1.774,3.5135 -2.6967,6.4468 -0.9227,2.9334 -3.4525,8.88 -5.6219,13.2147 -2.1694,4.3348 -6.9579,11.0678 -10.6411,14.9622 -3.6832,3.8944 -9.6543,8.9787 -13.2693,11.2984 l -6.5726,4.2176 2.9626,3.1536 c 1.6295,1.7344 3.3681,3.1535 3.8635,3.1535 0.4955,0 3.2409,-1.7133 6.1009,-3.8074 z m -261.0786,-42.3392 c 0.2455,-1.6488 -1.1227,-3.7213 -3.7288,-5.6481 -2.2642,-1.6739 -5.1387,-2.8467 -6.3879,-2.6062 -1.2492,0.2406 -2.2713,1.4676 -2.2713,2.7267 0,1.2592 2.1,3.7697 4.6667,5.5789 2.5667,1.8093 5.2667,3.1239 6,2.9214 0.7333,-0.2026 1.5079,-1.5403 1.7213,-2.9727 z m 6.9454,-7.055 c 0,-1.4915 -1.9523,-3.6868 -4.7429,-5.3333 -2.6086,-1.5391 -5.5732,-2.7984 -6.588,-2.7984 -1.0148,0 -2.1824,0.5459 -2.5948,1.213 -0.4123,0.6672 -0.4408,2.0179 -0.063,3.0017 0.3776,0.9838 2.3295,2.7831 4.3377,3.9985 2.0082,1.2153 5.0013,2.2645 6.6513,2.3316 2.1019,0.085 3,-0.637 3,-2.4131 z m 1.5579,-64.7589 c 1.1727,-2.5737 1.0936,-3.7883 -0.3619,-5.5556 -1.0245,-1.244 -4.2027,-3.9618 -7.0628,-6.0395 -2.86,-2.0777 -6.1657,-3.7777 -7.3459,-3.7777 -1.1802,0 -2.8967,1.2023 -3.8145,2.6718 -1.4957,2.3952 -0.9421,3.359 5.346,9.3073 3.858,3.6495 8.0774,6.6472 9.3764,6.6615 1.2991,0.014 3.0373,-1.4562 3.8627,-3.2678 z m -37.0339,-5.4818 c 0.4451,-1.16 0.8093,-14.6302 0.8093,-29.9338 0,-24.41641 -0.2682,-27.97477 -2.1894,-29.04993 -1.2041,-0.67388 -3.3041,-0.93372 -4.6666,-0.57741 -2.3204,0.60679 -2.4773,2.52399 -2.4773,30.27009 0,16.29225 0.4,30.02225 0.8889,30.51115 0.4888,0.4889 2.2247,0.8889 3.8573,0.8889 1.6327,0 3.3327,-0.9491 3.7778,-2.109 z m 217.0376,-8.0977 c 1.3411,-1.2136 2.4384,-3.2152 2.4384,-4.4479 0,-1.2327 -4.05,-6.1283 -9,-10.8791 -4.95,-4.7508 -12.4244,-11.14924 -16.6098,-14.21873 -4.1853,-3.0695 -8.5748,-5.5809 -9.7543,-5.5809 -1.1795,0 -3.3051,0.62111 -4.7236,1.38024 -1.4184,0.75914 -2.5753,2.10914 -2.5708,3 0,0.89087 4.8928,5.21976 10.8629,9.61976 5.97,4.40003 13.8563,11.45003 17.5251,15.66663 3.6687,4.2167 7.2832,7.6667 8.0321,7.6667 0.7489,0 2.459,-0.993 3.8,-2.2067 z m -110.3209,-11.2231 6.2465,-2.763 8.1819,2.763 c 4.5001,1.5197 10.9155,2.7609 14.2564,2.7581 3.7013,0 7.7674,-1.0372 10.4078,-2.647 3.0396,-1.8533 4.3333,-3.6431 4.3333,-5.995 0,-1.84415 -0.75,-3.33171 -1.6666,-3.30572 -0.9167,0.026 -3.1667,0.90473 -5,1.95275 -1.8334,1.04807 -5.2079,1.92677 -7.4991,1.95277 -2.2911,0.026 -6.7165,-0.8528 -9.8343,-1.95277 -3.1177,-1.1 -8.6506,-2 -12.2952,-2 -3.868,0 -8.2394,0.9527 -10.5008,2.28849 -2.1307,1.25868 -4.212,3.35328 -4.6251,4.65478 -0.413,1.3014 -0.3769,2.9716 0.08,3.7115 0.4573,0.7399 1.0198,1.3452 1.2499,1.3452 0.2302,0 3.2294,-1.2434 6.6649,-2.7631 z m 11.8979,-88.50653 c 1.9812,-1.8361 3.528,-4.71422 3.528,-6.56437 0,-1.81209 -1.5533,-5.14073 -3.4518,-7.397 -2.579,-3.06496 -4.572,-4.1023 -7.8815,-4.1023 -3.3095,0 -5.3025,1.03734 -7.8815,4.1023 -1.8985,2.25627 -3.4518,5.30242 -3.4518,6.76923 0,1.46681 1.7538,4.42078 3.8974,6.56437 2.5347,2.53466 5.2639,3.89743 7.8053,3.89743 2.3001,0 5.3594,-1.34521 7.4359,-3.26966 z m -154.3379,0.0678 c 0.3944,-1.02771 -1.4225,-4.84656 -4.0374,-8.48634 -2.6149,-3.63978 -5.6564,-9.17436 -6.7589,-12.29908 -1.1024,-3.12471 -2.0044,-8.49897 -2.0044,-11.9428 0,-3.44384 0.9325,-8.99845 2.0723,-12.34358 1.1398,-3.34514 4.1986,-8.56609 6.7974,-11.60212 2.8801,-3.36479 4.4152,-6.32719 3.9316,-7.58732 -0.4363,-1.13701 -1.8229,-1.869 -3.0813,-1.62665 -1.2584,0.24235 -4.4825,3.34406 -7.1645,6.89269 -2.6821,3.54863 -5.6126,8.90892 -6.5123,11.91177 -0.8996,3.00284 -1.6185,9.85181 -1.5974,15.21992 0.03,7.53 0.8019,11.42824 3.3802,17.06009 1.8381,4.01494 4.9504,9.4086 6.9162,11.98593 1.9659,2.57733 4.4219,4.68605 5.4579,4.68605 1.0359,0 2.2062,-0.84085 2.6006,-1.86856 z m 70.5452,-0.81208 c 2.3561,-2.60343 2.3339,-2.77863 -0.7706,-6.08321 -1.7581,-1.87141 -5.1737,-4.62453 -7.5902,-6.11804 -3.5299,-2.18159 -4.7796,-2.39528 -6.3561,-1.08686 -1.0793,0.89573 -1.9624,2.58877 -1.9624,3.76232 0,1.17354 2.55,4.37449 5.6667,7.11322 3.1167,2.73873 6.3237,5.00509 7.1267,5.03636 0.803,0.0313 2.5517,-1.14944 3.8859,-2.62379 z m 140.3137,-3.74745 c 0.9128,-0.57965 6.1972,-11.11845 11.7432,-23.41954 7.1679,-15.89864 9.965,-23.58777 9.6737,-26.59233 l -0.4099,-4.22671 -18.8073,-0.36876 c -15.5526,-0.30495 -19.0997,-0.0165 -20.4966,1.66666 -1.349,1.62551 -1.355,2.43823 -0.029,4.03544 1.2803,1.54266 4.8239,2 15.4966,2 10.62,0 13.8367,0.412 13.8367,1.7722 0,0.97471 -4.2224,10.98365 -9.3831,22.24208 -5.1607,11.25843 -9.0795,21.26094 -8.7085,22.2278 0.371,0.96685 1.7434,1.74873 3.0498,1.7375 1.3063,-0.0112 3.122,-0.49468 4.0348,-1.07434 z m -186.7697,-53.05889 c 2.0473,-3.12454 2.0805,-3.85211 0.3195,-7 -1.0809,-1.93216 -3.3446,-3.71123 -5.0306,-3.9535 -1.686,-0.24226 -4.2159,0.60073 -5.6221,1.87332 -1.4062,1.27259 -2.5567,3.52356 -2.5567,5.00216 0,1.4786 0.993,3.7856 2.2066,5.12668 1.2137,1.34108 3.5998,2.43832 5.3026,2.43832 1.8674,0 4.0026,-1.38371 5.3807,-3.48698 z m 128.6717,-57.38634 c 1.3411,-1.21365 2.4384,-3.2515 2.4384,-4.52854 0,-1.27704 -2.1739,-4.23056 -4.8308,-6.56338 -2.6569,-2.33282 -6.2392,-4.88318 -7.9605,-5.66748 -2.3301,-1.06166 -3.6509,-0.99353 -5.1692,0.26662 -1.1218,0.93094 -2.0395,2.6215 -2.0395,3.75679 0,1.1353 3.15,4.9346 7,8.44289 3.85,3.50829 7.2527,6.40594 7.5616,6.43923 0.309,0.0333 1.659,-0.93247 3,-2.14613 z m -90.2679,-30.54792 c 18.0716,-15.08168 33.2108,-28.34223 33.6428,-29.4679 0.432,-1.12566 -0.046,-2.56063 -1.0627,-3.18882 -1.1592,-0.71646 -3.0952,-0.33257 -5.1943,1.03002 -1.8404,1.19469 -16.2462,12.94449 -32.0129,26.11064 -15.7666,13.16616 -29.7257,25.14084 -31.0201,26.6104 -1.8015,2.04537 -1.9977,3.10047 -0.8367,4.49942 0.8342,1.00511 1.9914,1.82748 2.5716,1.82748 0.5802,0 15.8407,-12.33956 33.9123,-27.42124 z m 54.7063,-5.24543 V 736.6665 h -4 -4 l -0.3602,29.30179 c -0.1981,16.11598 -0.051,30.10616 0.3257,31.08929 0.4056,1.05686 2.1878,1.61476 4.3602,1.36488 L 1236.6667,798 Z"
         id="path3" />
    </g>
  </g>
</svg>
