<?xml version="1.0" encoding="UTF-8" standalone="no"?>
<!--
   - This Source Code Form is subject to the terms of the Mozilla Public
   - License, v. 2.0. If a copy of the MPL was not distributed with this
   - file, You can obtain one at http://mozilla.org/MPL/2.0/.
   -->

<svg
   width="16"
   height="16"
   fill="context-fill"
   fill-opacity="context-fill-opacity"
   version="1.1"
   id="svg1"
   sodipodi:docname="tab.svg"
   xml:space="preserve"
   inkscape:version="1.3.2 (091e20e, 2023-11-25, custom)"
   xmlns:inkscape="http://www.inkscape.org/namespaces/inkscape"
   xmlns:sodipodi="http://sodipodi.sourceforge.net/DTD/sodipodi-0.dtd"
   xmlns="http://www.w3.org/2000/svg"
   xmlns:svg="http://www.w3.org/2000/svg"><defs
     id="defs1" /><sodipodi:namedview
     id="namedview1"
     pagecolor="#505050"
     bordercolor="#eeeeee"
     borderopacity="1"
     inkscape:showpageshadow="0"
     inkscape:pageopacity="0"
     inkscape:pagecheckerboard="0"
     inkscape:deskcolor="#505050"
     inkscape:zoom="34.3125"
     inkscape:cx="8.0145719"
     inkscape:cy="8.0582878"
     inkscape:window-width="1366"
     inkscape:window-height="745"
     inkscape:window-x="-8"
     inkscape:window-y="-8"
     inkscape:window-maximized="1"
     inkscape:current-layer="svg1" /><path
     d="M3 1c-1.099 0-2 .9-2 2v10c0 1.099.9 2 2 2h10c1.099 0 2-.9 2-2V3c0-1.099-.9-2-2-2H3zm0 1h3v1.5C6 4.323 6.677 5 7.5 5H14v8c0 .563-.437 1-1 1H3c-.563 0-1-.437-1-1V3c0-.563.437-1 1-1zm4 0h6c.563 0 1 .437 1 1v1H7.5a.493.493 0 0 1-.5-.5V2z"
     id="path1"
     style="fill:#fbfbfb;fill-opacity:1;stroke:none;stroke-opacity:1" /><rect
     style="fill:#fbfbfb;fill-opacity:1;stroke:#fbfbfb;stroke-width:1.44231;stroke-linecap:round;stroke-linejoin:round;stroke-dasharray:none;stroke-opacity:1;paint-order:stroke fill markers"
     id="rect1"
     width="1.0368527"
     height="1.092899"
     x="7.4815736"
     y="8.6193066" /><rect
     style="fill:#fbfbfb;fill-opacity:1;stroke:#fbfbfb;stroke-width:1.44231;stroke-linecap:round;stroke-linejoin:round;stroke-dasharray:none;stroke-opacity:1;paint-order:stroke fill markers"
     id="rect2"
     width="1.0368527"
     height="1.092899"
     x="10.481155"
     y="8.6193066" /><rect
     style="fill:#fbfbfb;fill-opacity:1;stroke:#fbfbfb;stroke-width:1.44231;stroke-linecap:round;stroke-linejoin:round;stroke-dasharray:none;stroke-opacity:1;paint-order:stroke fill markers"
     id="rect3"
     width="1.0368527"
     height="1.092899"
     x="4.4811549"
     y="8.6193066" /></svg>
